<svg id="Layer_1" data-name="Layer 1" xmlns="http://www.w3.org/2000/svg" viewBox="0 0 40 40"><polygon points="13.73 19.58 10.69 14.25 13.73 8.92 19.82 8.92 22.87 14.25 19.82 19.58 13.73 19.58" style="fill:none;stroke:#000;stroke-linecap:round;stroke-linejoin:round;stroke-width:0.6000000000000001px"/><line x1="15.04" y1="11.17" x2="18.52" y2="11.17" style="fill:none;stroke:#000;stroke-linecap:round;stroke-linejoin:round;stroke-width:0.6000000000000001px"/><polyline points="22.87 14.25 28.96 14.25 32 19.58 28.96 24.9 22.87 24.9 19.82 19.58" style="fill:none;stroke:#000;stroke-linecap:round;stroke-linejoin:round;stroke-width:0.6000000000000001px"/><line x1="24.17" y1="22.66" x2="27.65" y2="22.66" style="fill:none;stroke:#000;stroke-linecap:round;stroke-linejoin:round;stroke-width:0.6000000000000001px"/><polyline points="22.87 24.91 19.82 30.23 13.73 30.23 10.69 24.91 13.73 19.58" style="fill:none;stroke:#000;stroke-linecap:round;stroke-linejoin:round;stroke-width:0.6000000000000001px"/><line x1="15.01" y1="21.86" x2="13.27" y2="24.91" style="fill:none;stroke:#000;stroke-linecap:round;stroke-linejoin:round;stroke-width:0.6000000000000001px"/><line x1="10.69" y1="14.25" x2="6.2" y2="14.25" style="fill:none;stroke:#000;stroke-linecap:round;stroke-linejoin:round;stroke-width:0.6000000000000001px"/><line x1="28.96" y1="14.25" x2="32" y2="8.92" style="fill:none;stroke:#000;stroke-linecap:round;stroke-linejoin:round;stroke-width:0.6000000000000001px"/><line x1="11.03" y1="34.72" x2="13.73" y2="30.23" style="fill:none;stroke:#000;stroke-linecap:round;stroke-linejoin:round;stroke-width:0.6000000000000001px"/></svg>