<svg fill="none" xmlns="http://www.w3.org/2000/svg" viewBox="0 0 44 54">
  <path d="M4.22 18.22C4 23 3.22 27.74 1.88 32.34a17.3 17.3 0 0 0 .74 12.76 14.18 14.18 0 0 0 18.84 5.67" stroke="#484848" stroke-width="2" stroke-linecap="round" stroke-linejoin="round"/>
  <path d="M4.28 17.57A40.43 40.43 0 0 0 17 24.22a17.32 17.32 0 0 1 10.23 7.68 14.42 14.42 0 0 1-6.3 19.1" stroke="#484848" stroke-width="2" stroke-linecap="round" stroke-linejoin="round"/>
  <path d="M7.14 43.3a9.68 9.68 0 0 0 6.74 3.83" stroke="#484848" stroke-width="2" stroke-miterlimit="10" stroke-linecap="round"/>
  <path d="M26.7 22.52c1.54 1.51 2.9 3.2 4.05 5.04a7.83 7.83 0 0 0 4.53 3.6 6.4 6.4 0 0 0 7.59-4.65" stroke="#484848" stroke-width="2" stroke-linecap="round" stroke-linejoin="round"/>
  <path d="M26.49 22.29A18.21 18.21 0 0 0 32.58 20a7.85 7.85 0 0 1 5.67-1.13 6.54 6.54 0 0 1 4.55 7.87" stroke="#484848" stroke-width="2" stroke-linecap="round" stroke-linejoin="round"/>
  <path d="M36.31 27.7a3.27 3.27 0 0 0 2.48-.83" stroke="#484848" stroke-width="2" stroke-miterlimit="10" stroke-linecap="round"/>
  <path d="M8.25 13.8c2.75.76 5.4 1.86 7.9 3.25a10.44 10.44 0 0 0 7.56 1.3 8.45 8.45 0 0 0 5.82-10.21" stroke="#484848" stroke-width="2" stroke-linecap="round" stroke-linejoin="round"/>
  <path d="M7.88 13.7a24.18 24.18 0 0 0 5.58-6.56 10.36 10.36 0 0 1 5.85-4.92 8.62 8.62 0 0 1 10.28 6.22" stroke="#484848" stroke-width="2" stroke-linecap="round" stroke-linejoin="round"/>
  <path d="M24 14.39a4.32 4.32 0 0 0 2.34-2.52" stroke="#484848" stroke-width="2" stroke-miterlimit="10" stroke-linecap="round"/>
</svg>
