<svg fill="none" xmlns="http://www.w3.org/2000/svg" viewBox="0 0 44 40">
  <path d="M42.12 21.88h-.06c-.58 0-3.37-.1-6-1.66-2.62-1.53-5.12-4.51-5.12-10.34 0-.5-.42-.92-.92-.92s-.92.42-.92.92c0 5.83-2.5 8.8-5.11 10.34a12.63 12.63 0 0 1-5.96 1.65c-.2 0-.4.06-.56.2a.66.66 0 0 0-.17.15l-.04.06-.02.02-.03.04-.02.03c-.14.28-.14.62 0 .9.15.3.5.5.84.5h.05c.58 0 3.35.1 5.98 1.65 2.6 1.53 5.09 4.51 5.09 10.34 0 .5.42.92.92.92s.92-.42.92-.92c0-5.8 2.49-8.78 5.1-10.32a12.64 12.64 0 0 1 5.97-1.67c.37 0 .64-.23.82-.46l.01-.02.01-.02a.89.89 0 0 0-.06-.92.84.84 0 0 0-.34-.32 1.57 1.57 0 0 0-.38-.15ZM7.79 7.47h-.04c-.46.06-.83.41-.83.92 0 .5.42.92.92.92.32 0 1.8.05 3.2.88 1.39.81 2.72 2.4 2.72 5.55 0 .5.41.91.9.93.25.03.47-.08.63-.23.16-.16.26-.4.26-.64 0-3.16 1.35-4.75 2.73-5.56 1.41-.83 2.9-.88 3.2-.88h.05c.5 0 .92-.43.92-.97 0-.5-.42-.92-.92-.92-.3 0-1.79-.05-3.2-.88-1.38-.82-2.73-2.4-2.73-5.56 0-.5-.42-.92-.92-.92s-.92.42-.92.92c0 3.15-1.34 4.74-2.73 5.56-1.4.83-2.9.88-3.19.88h-.05Zm-5.92 23.2h-.04c-.46.07-.83.42-.83.92s.42.92.92.92c.32 0 1.8.05 3.21.88 1.38.82 2.71 2.4 2.71 5.56 0 .49.4.9.89.92.24.07.48-.03.64-.19a.96.96 0 0 0 .27-.68c0-3.15 1.34-4.74 2.73-5.56 1.4-.82 2.9-.87 3.19-.87h.05c.5 0 .92-.44.92-.98 0-.5-.42-.92-.92-.92-.3 0-1.78-.05-3.2-.88-1.38-.81-2.72-2.4-2.72-5.55 0-.5-.43-.93-.93-.93s-.92.43-.92.93c0 3.15-1.34 4.74-2.73 5.55-1.4.83-2.9.88-3.19.88h-.05Zm35.4-7.88c-2.65 1-5.74 3.01-7.25 7.13a11.86 11.86 0 0 0-7.26-7.13c2.65-.99 5.74-3 7.26-7.12a11.86 11.86 0 0 0 7.25 7.13ZM17.74 8.4a7.14 7.14 0 0 0-3.1 3.06 7.07 7.07 0 0 0-3.12-3.06 7.14 7.14 0 0 0 3.1-3.06 7.07 7.07 0 0 0 3.12 3.05Zm-5.92 23.25a7.14 7.14 0 0 0-3.1 3.08 7.24 7.24 0 0 0-3.11-3.07 7.14 7.14 0 0 0 3.1-3.07 7.07 7.07 0 0 0 3.11 3.06Z" fill="#484848" stroke="#484848" stroke-width=".2"/>
</svg>
