<svg fill="none" xmlns="http://www.w3.org/2000/svg" viewBox="0 0 41 40">
  <path d="M9.04.68h-.07a9.36 9.36 0 0 0-5.27 2.8 9.56 9.56 0 0 0-2.64 4.7c-.12.52-.18 1.37-.18 2.2 0 .82.06 1.68.19 2.2a9.87 9.87 0 0 0 2.75 4.77A9.51 9.51 0 0 0 9.9 20.2l.3.04-.17.62a15.25 15.25 0 0 0 2.56 12.88 15.5 15.5 0 0 0 20.31 4.12c3.88-2.32 6.44-6 7.36-10.51.12-.67.18-1.7.18-2.7 0-1.01-.06-2.03-.18-2.68a15.55 15.55 0 0 0-4.12-7.99 15.45 15.45 0 0 0-10.39-4.71c-1.53-.08-2.93.08-4.47.43h-.01l-.63.17-.03-.3a9.86 9.86 0 0 0-1.58-4.54 11.65 11.65 0 0 0-3.12-3.04A10.04 10.04 0 0 0 9.03.68Zm7.99 5.66a6.54 6.54 0 0 1 1.14 3.76v.72l-.5.28a15.74 15.74 0 0 0-6.31 6.3l-.28.51h-.36a7.35 7.35 0 0 1-5.35-2.15 7.01 7.01 0 0 1-2.23-5.34c0-1.65.33-2.78 1.19-4.08a7.6 7.6 0 0 1 4.9-3.31c.35-.07.97-.1 1.6-.09.65.02 1.26.08 1.58.16l.05.02h.08a7.5 7.5 0 0 1 4.49 3.22Zm10.26 5.4.05.04.11.02c3.94.76 7.43 3.38 9.25 7.01.41.83.94 2.4 1.13 3.38a14 14 0 0 1 .17 2.4c0 .95-.06 1.87-.17 2.44a13.2 13.2 0 0 1-5.8 8.53 13.53 13.53 0 0 1-4.66 1.86c-.59.1-1.51.17-2.46.17-.94 0-1.85-.06-2.42-.17a13.07 13.07 0 0 1-9.4-18.38 13.32 13.32 0 0 1 10.16-7.43c.43-.05 1.23-.07 2.05-.05.77.03 1.52.09 2 .18Z" fill="#484848"/>
</svg>
