<svg width="32" height="31" viewBox="0 0 32 31" fill="none" xmlns="http://www.w3.org/2000/svg">
<path d="M12.9001 23.9898L12.9001 23.9898C12.9231 22.9996 13.1056 22.0191 13.441 21.0844L13.4411 21.0841C13.7854 20.1432 13.9693 19.1535 13.9856 18.1545C13.9868 17.9947 13.9554 17.8363 13.8933 17.6883C13.8312 17.5403 13.7396 17.4058 13.6236 17.2925C13.5077 17.1793 13.3698 17.0896 13.2179 17.0289C13.0661 16.9681 12.9033 16.9374 12.7391 16.9386L12.7387 16.9386L1.33706 16.9386C1.28616 16.94 1.23547 16.9312 1.18807 16.9128C1.14043 16.8944 1.09709 16.8666 1.06072 16.831C1.02436 16.7955 0.995744 16.753 0.976706 16.7062C0.957763 16.6596 0.948717 16.6096 0.950146 16.5594M12.9001 23.9898L14.708 18.1552M12.9001 23.9898V23.991C12.9001 24.8143 13.1009 25.7027 13.5902 26.3868C14.0812 27.0731 14.86 27.55 16.0048 27.55C17.145 27.55 17.9261 27.0682 18.4205 26.3798C18.9133 25.6936 19.1191 24.8052 19.1192 23.991L19.1191 23.9898C19.0952 22.9979 18.906 22.0165 18.5589 21.0841C18.2146 20.1432 18.0307 19.1536 18.0144 18.1547C18.0132 17.9948 18.0446 17.8363 18.1067 17.6883C18.1688 17.5403 18.2604 17.4058 18.3764 17.2925C18.4923 17.1793 18.6302 17.0896 18.7821 17.0289C18.9339 16.9681 19.0967 16.9374 19.2609 16.9386H19.2613H30.6629C30.7138 16.94 30.7645 16.9312 30.8119 16.9128C30.8596 16.8944 30.9029 16.8666 30.9393 16.831C30.9756 16.7955 31.0043 16.753 31.0233 16.7062C31.0422 16.6596 31.0513 16.6096 31.0499 16.5594M12.9001 23.9898L13.6725 23.9916M0.950146 16.5594C0.950249 16.5098 0.960301 16.4608 0.979707 16.415C0.999211 16.369 1.02777 16.3273 1.06368 16.2922C1.0996 16.2571 1.14217 16.2294 1.18894 16.2105C1.23571 16.1915 1.2858 16.1818 1.33636 16.1818H12.7381C13.0049 16.1753 13.2703 16.2218 13.5182 16.3185C13.7664 16.4153 13.9918 16.5604 14.1808 16.745C14.3699 16.9297 14.5186 17.15 14.6178 17.3927C14.717 17.6352 14.7647 17.895 14.758 18.1561M0.950146 16.5594C0.950146 16.5597 0.950146 16.5599 0.950146 16.5602H1.00015L0.950169 16.5587C0.950161 16.5589 0.950154 16.5592 0.950146 16.5594ZM14.758 18.1561C14.758 18.1563 14.758 18.1564 14.758 18.1565L14.708 18.1552M14.758 18.1561C14.758 18.156 14.758 18.1559 14.758 18.1558L14.708 18.1552M14.758 18.1561C14.7446 19.2333 14.5489 20.3008 14.1786 21.3154L14.1316 21.2983M14.708 18.1552C14.6947 19.2268 14.5 20.2888 14.1316 21.2983M14.1316 21.2983L14.1786 21.3154C13.8647 22.1754 13.6939 23.0789 13.6725 23.9916M14.1316 21.2983L13.6725 23.9916M13.6725 23.9916C13.6726 24.3222 13.7158 25.0158 14.0296 25.6253C14.1862 25.9294 14.4096 26.2115 14.7277 26.4176C15.0455 26.6236 15.4609 26.7557 16.0048 26.7557C16.5485 26.7557 16.9632 26.6213 17.2801 26.4125C17.5973 26.2036 17.8196 25.9181 17.9751 25.6115C18.2866 24.9973 18.3274 24.3035 18.3275 23.9916C18.3061 23.0789 18.1353 22.1754 17.8214 21.3154L17.8213 21.3152C17.4558 20.2995 17.2602 19.2328 17.242 18.1563M17.242 18.1563C17.2353 17.8951 17.283 17.6352 17.3822 17.3927C17.4814 17.15 17.6301 16.9297 17.8192 16.745C18.0082 16.5604 18.2337 16.4153 18.4818 16.3185C18.7297 16.2218 18.9951 16.1753 19.2619 16.1818H30.6636C30.7142 16.1818 30.7643 16.1915 30.8111 16.2105C30.8578 16.2294 30.9004 16.2571 30.9363 16.2922L30.9363 16.2922C30.9722 16.3273 31.0008 16.369 31.0203 16.415C31.0397 16.4608 31.0498 16.5098 31.0499 16.5594M17.242 18.1563C17.242 18.1563 17.242 18.1564 17.242 18.1565L17.292 18.1552L17.242 18.156C17.242 18.1561 17.242 18.1562 17.242 18.1563ZM31.0499 16.5594C31.0498 16.5592 31.0498 16.5589 31.0498 16.5587L30.9999 16.5602H31.0499C31.0499 16.5599 31.0499 16.5597 31.0499 16.5594Z" fill="black" stroke="black" stroke-width="0.1"/>
<path d="M12.466 12.5874C12.5385 12.6582 12.6366 12.6978 12.7387 12.6978C12.8408 12.6978 12.9389 12.6582 13.0114 12.5874C13.0839 12.5165 13.1249 12.4201 13.1249 12.3194C13.1249 11.0282 13.4613 10.0627 14.1197 9.41967C14.7783 8.77639 15.7674 8.44758 17.0902 8.44758C17.1923 8.44758 17.2904 8.40799 17.3629 8.33717C17.4355 8.2663 17.4765 8.16994 17.4765 8.0692C17.4765 7.96846 17.4355 7.87209 17.3629 7.80123C17.2904 7.7304 17.1923 7.69082 17.0902 7.69082C15.7674 7.69082 14.7782 7.36431 14.1196 6.72336C13.4613 6.08265 13.1249 5.11959 13.1249 3.82838C13.1249 3.72764 13.0839 3.63128 13.0114 3.56041C12.9389 3.48959 12.8408 3.45 12.7387 3.45C12.6366 3.45 12.5385 3.48959 12.466 3.56041C12.3935 3.63128 12.3525 3.72764 12.3525 3.82838C12.3525 5.11969 12.0185 6.08274 11.3625 6.72342C10.7063 7.36431 9.71965 7.69082 8.39676 7.69082C8.2947 7.69082 8.1966 7.7304 8.12408 7.80123C8.05153 7.87209 8.01055 7.96846 8.01055 8.0692C8.01055 8.16994 8.05153 8.2663 8.12408 8.33717C8.1966 8.40799 8.2947 8.44758 8.39676 8.44758C9.71956 8.44758 10.7063 8.77639 11.3624 9.4196C12.0185 10.0626 12.3525 11.0281 12.3525 12.3194C12.3525 12.4201 12.3935 12.5165 12.466 12.5874ZM11.9028 8.88987C11.5395 8.53351 11.1054 8.25449 10.6278 8.06963C11.1058 7.88771 11.5405 7.61071 11.904 7.25562C12.2683 6.8998 12.5525 6.47406 12.7389 6.00577C12.9267 6.4747 13.2125 6.90077 13.5784 7.25663C13.9433 7.61158 14.3794 7.88823 14.8585 8.06963C14.3797 8.25398 13.9443 8.53265 13.5796 8.88886C13.2138 9.24614 12.9277 9.67304 12.7389 10.1426C12.5515 9.67368 12.267 9.24711 11.9028 8.88987Z" fill="black" stroke="black" stroke-width="0.1"/>
<path d="M16.7412 11.2976C16.7414 11.398 16.7823 11.4941 16.8547 11.5648C16.9272 11.6356 17.0253 11.6752 17.1274 11.6752V11.6756L17.1334 11.6748C17.516 11.6286 17.9044 11.6682 18.2689 11.7906C18.6335 11.913 18.9645 12.115 19.237 12.3811C19.5094 12.6472 19.716 12.9703 19.8412 13.326C19.9664 13.6816 20.0069 14.0604 19.9596 14.4336L19.9592 14.4336V14.4399C19.9592 14.5406 20.0002 14.637 20.0727 14.7079C20.1452 14.7787 20.2433 14.8183 20.3454 14.8183C20.4475 14.8183 20.5456 14.7787 20.6181 14.7079C20.6906 14.637 20.7316 14.5406 20.7316 14.4399H20.732L20.7312 14.4336C20.6839 14.0604 20.7244 13.6816 20.8496 13.326C20.9748 12.9703 21.1814 12.6472 21.4538 12.3811C21.7263 12.115 22.0573 11.913 22.4219 11.7906C22.7864 11.6682 23.1748 11.6286 23.5574 11.6748L23.5574 11.6752H23.5634C23.6655 11.6752 23.7636 11.6356 23.8361 11.5648C23.9085 11.4941 23.9494 11.398 23.9496 11.2976M16.7412 11.2976C16.7397 11.2474 16.7488 11.1974 16.7677 11.1508C16.7868 11.104 16.8154 11.0615 16.8517 11.026C16.8881 10.9904 16.9315 10.9626 16.9791 10.9442C17.0267 10.9257 17.0777 10.917 17.1288 10.9185L17.1333 10.9186L17.1333 10.9188C17.52 10.9646 17.9123 10.9232 18.28 10.7976C18.6477 10.672 18.9808 10.4657 19.2538 10.1946C19.5268 9.92352 19.7323 9.59495 19.8547 9.23422C19.977 8.8735 20.0129 8.4902 19.9597 8.11383L19.9587 8.10682H19.9592C19.9592 8.00609 20.0002 7.90972 20.0727 7.83885C20.1452 7.76803 20.2433 7.72844 20.3454 7.72844C20.4475 7.72844 20.5456 7.76803 20.6181 7.83885C20.6906 7.90972 20.7316 8.00609 20.7316 8.10682V8.1139L20.7311 8.11383C20.6779 8.4902 20.7138 8.8735 20.8361 9.23422C20.9585 9.59495 21.164 9.92352 21.437 10.1946C21.71 10.4657 22.0431 10.672 22.4108 10.7976C22.7785 10.9232 23.1708 10.9646 23.5575 10.9188L23.562 10.9183L23.562 10.9185C23.6131 10.917 23.6641 10.9257 23.7117 10.9442C23.7594 10.9626 23.8027 10.9904 23.8391 11.026C23.8754 11.0615 23.904 11.104 23.9231 11.1508C23.942 11.1974 23.9511 11.2474 23.9496 11.2976M16.7412 11.2976C16.7412 11.2973 16.7412 11.2971 16.7412 11.2968H16.7912M16.7412 11.2976C16.7412 11.2978 16.7412 11.2981 16.7412 11.2983L16.7912 11.2968M23.9496 11.2976C23.9496 11.2973 23.9496 11.2971 23.9496 11.2968H23.8996L23.9496 11.2983C23.9496 11.2981 23.9496 11.2978 23.9496 11.2976ZM16.7912 11.2968C16.7898 11.2533 16.7976 11.2101 16.814 11.1696C16.8305 11.1292 16.8552 11.0925 16.8867 11.0617C16.9182 11.031 16.9558 11.0068 16.9972 10.9908C17.0385 10.9747 17.0829 10.9671 17.1274 10.9684L16.7912 11.2968ZM21.6825 11.2591C21.0971 11.5324 20.6249 11.9939 20.3454 12.5665C20.0653 11.9916 19.5897 11.5296 19.0004 11.259C19.5902 10.9851 20.0655 10.5204 20.3454 9.94336C20.6239 10.5187 21.0961 10.9831 21.6825 11.2591Z" fill="black" stroke="black" stroke-width="0.1"/>
</svg>
