<svg width="170" height="100" viewBox="0 0 170 100" fill="none" xmlns="http://www.w3.org/2000/svg">
<path d="M95.2987 43.2785C100.285 38.9289 104.799 34.111 108.837 28.8344C110.064 27.2334 107.866 24.9586 106.628 26.5765C102.59 31.8531 98.0739 36.6709 93.088 41.0206C91.5569 42.3573 93.7771 44.6076 95.2987 43.2785" fill="#CC3195"/>
<path d="M103.284 64.4862C109.355 65.9229 115.502 66.6289 121.734 66.5855C123.745 66.5723 123.75 63.3799 121.734 63.3931C115.774 63.4346 109.925 62.7814 104.114 61.4071C102.157 60.9445 101.32 64.0218 103.284 64.4862Z" fill="#CC3195"/>
<path d="M87.5282 79.5535C88.8875 82.6421 90.2449 85.7307 91.6042 88.8192C92.4292 90.6883 95.1232 89.0685 94.3038 87.207C92.9446 84.1184 91.5853 81.0299 90.2279 77.9413C89.4029 76.0704 86.7089 77.694 87.5282 79.5535Z" fill="#CC3195"/>
<path d="M66.1842 78.0706C61.6854 82.0144 57.1846 85.9601 52.6858 89.9057C51.1567 91.2461 53.3749 93.4946 54.8965 92.1636C59.3953 88.218 63.896 84.2723 68.3948 80.3285C69.9241 78.9881 67.7039 76.7377 66.1842 78.0706Z" fill="#CC3195"/>
<path d="M67.7512 51.8028C61.4853 50.3736 55.2175 48.9446 48.9517 47.5154C46.9921 47.068 46.1557 50.1453 48.121 50.5927C54.3869 52.0237 60.6528 53.4528 66.9205 54.882C68.8801 55.3294 69.7165 52.2521 67.7512 51.8029" fill="#CC3195"/>
<path d="M78.385 39.2775C76.6538 35.1299 74.9245 30.984 73.1934 26.8383C72.4061 24.9542 69.714 26.5778 70.4937 28.4505C72.2249 32.5963 73.9561 36.7421 75.6872 40.8898C76.4726 42.7738 79.1666 41.1484 78.385 39.2775" fill="#CC3195"/>
<path d="M30.5941 12.7941C33.7526 9.57145 36.6127 6.00529 39.1708 2.09739C39.9467 0.913672 38.5554 -0.772179 37.77 0.426552C35.2119 4.33451 32.3517 7.90073 29.1934 11.1214C28.2248 12.1126 29.6295 13.7777 30.5941 12.7941Z" fill="#CC3195"/>
<path d="M30.5941 12.7941C33.7526 9.57145 36.6127 6.00529 39.1708 2.09739C39.9467 0.913672 38.5554 -0.772179 37.77 0.426552C35.2119 4.33451 32.3517 7.90073 29.1934 11.1214C28.2248 12.1126 29.6295 13.7777 30.5941 12.7941Z" fill="#CC3195"/>
<path d="M35.6532 28.4974C39.5008 29.5603 43.3936 30.0832 47.3411 30.053C48.6154 30.0417 48.6192 27.678 47.3411 27.6875C43.5654 27.7176 39.8613 27.2363 36.18 26.2168C34.9415 25.8751 34.411 28.1538 35.6532 28.4974" fill="#CC3195"/>
<path d="M35.6532 28.4974C39.5008 29.5603 43.3936 30.0832 47.3411 30.053C48.6154 30.0417 48.6192 27.678 47.3411 27.6875C43.5654 27.7176 39.8613 27.2363 36.18 26.2168C34.9415 25.8751 34.411 28.1538 35.6532 28.4974" fill="#CC3195"/>
<path d="M25.6723 39.6523C26.5332 41.9405 27.394 44.2267 28.2549 46.5129C28.7779 47.8967 30.4827 46.6979 29.9635 45.3197C29.1026 43.0354 28.2417 40.7473 27.3827 38.461C26.8598 37.0735 25.1532 38.276 25.6723 39.6523Z" fill="#CC3195"/>
<path d="M25.6723 39.6523C26.5332 41.9405 27.394 44.2267 28.2549 46.5129C28.7779 47.8967 30.4827 46.6979 29.9635 45.3197C29.1026 43.0354 28.2417 40.7473 27.3827 38.461C26.8598 37.0735 25.1532 38.276 25.6723 39.6523Z" fill="#CC3195"/>
<path d="M12.1516 38.5558C9.30089 41.4764 6.45012 44.3969 3.60131 47.3194C2.63287 48.3105 4.0393 49.9775 5.00024 48.9901L13.5524 40.2266C14.5208 39.2354 13.1144 37.5703 12.1516 38.5558Z" fill="#CC3195"/>
<path d="M12.1516 38.5558C9.30089 41.4764 6.45012 44.3969 3.60131 47.3194C2.63287 48.3105 4.0393 49.9775 5.00024 48.9901L13.5524 40.2266C14.5208 39.2354 13.1144 37.5703 12.1516 38.5558Z" fill="#CC3195"/>
<path d="M13.1443 19.1072L1.23559 15.9318C-0.00476956 15.6014 -0.53522 17.8801 0.71075 18.2123L12.6176 21.3878C13.8599 21.7181 14.3903 19.4395 13.1443 19.1072Z" fill="#CC3195"/>
<path d="M13.1443 19.1072L1.23559 15.9318C-0.00476956 15.6014 -0.53522 17.8801 0.71075 18.2123L12.6176 21.3878C13.8599 21.7181 14.3903 19.4395 13.1443 19.1072Z" fill="#CC3195"/>
<path d="M19.88 9.83128C18.7832 6.76164 17.6863 3.69194 16.5913 0.620276C16.0929 -0.774803 14.3863 0.429667 14.881 1.81346C15.9778 4.88505 17.0746 7.95476 18.1697 11.0245C18.6681 12.4195 20.3747 11.217 19.88 9.83128Z" fill="#CC3195"/>
<path d="M19.88 9.83128C18.7832 6.76164 17.6863 3.69194 16.5913 0.620276C16.0929 -0.774803 14.3863 0.429667 14.881 1.81346C15.9778 4.88505 17.0746 7.95476 18.1697 11.0245C18.6681 12.4195 20.3747 11.217 19.88 9.83128Z" fill="#CC3195"/>
</svg>
