<svg width="50" height="40" viewBox="0 0 50 40" fill="none" xmlns="http://www.w3.org/2000/svg">
<path fill-rule="evenodd" clip-rule="evenodd" d="M50 8.72815C50 5.42498 50.0243 2.98979 48.7353 1.56727C48.03 0.77157 47.0328 0.14462 45.3789 0.14462H40.9769V17.3116H45.3789C47.0328 17.3116 48.03 16.6847 48.7353 15.8891C50.0243 14.4664 50 12.0313 50 8.72814V8.72815ZM47.276 8.70398C47.276 11.6938 47.203 13.3815 46.6923 14.1771C46.4248 14.587 45.9628 14.8764 45.3061 14.8764H43.701V2.57988H45.3061C45.9628 2.57988 46.4248 2.86921 46.6923 3.27911C47.203 4.07475 47.276 5.71431 47.276 8.70398ZM41.6538 23.6529C40.8052 24.4709 40.5515 25.6077 40.5368 27.2797L40.5353 27.9624C40.5353 30.0386 41.3686 31.1811 42.9543 31.8265L44.0083 32.2506L44.0188 32.2547L45.3136 32.7666C46.2964 33.1507 46.7843 33.8152 46.7857 34.6546V35.1765C46.7857 35.1769 46.7857 35.1775 46.7857 35.1779C46.7857 36.0941 46.6885 36.6728 46.3236 37.0827C46.0561 37.396 45.6427 37.5649 45.0104 37.5649C44.4022 37.5649 43.9888 37.3719 43.7456 37.1067C43.3565 36.6728 43.2592 36.0941 43.2592 35.1779H40.5353C40.5353 36.9861 40.8271 38.0471 41.654 38.8668C42.3836 39.5901 43.5024 40 45.0104 40C46.5424 40 47.6857 39.542 48.3909 38.8668C49.2396 38.0488 49.4934 36.912 49.5081 35.24L49.5095 34.5259C49.5095 32.4497 48.6763 31.3387 47.0906 30.6932L46.0364 30.2691L46.0259 30.265L44.7312 29.753C43.7485 29.369 43.2606 28.6731 43.259 27.8337V27.3432C43.259 27.3427 43.2592 27.3423 43.2592 27.3418C43.2592 26.4256 43.3563 25.847 43.7212 25.4371C43.9888 25.1236 44.4022 24.9548 45.0345 24.9548C45.6427 24.9548 46.0561 25.1478 46.2991 25.413C46.6884 25.847 46.7857 26.4256 46.7857 27.3418H49.5095C49.5095 25.5335 49.2177 24.4726 48.3908 23.6529C47.6612 22.9295 46.5424 22.5197 45.0345 22.5197C43.5024 22.5197 42.3592 22.9778 41.6538 23.6529ZM33.472 39.8095H36.1991V22.6425H33.472V29.9629L33.3724 29.9737L29.7054 22.6425H26.957L31.1205 31.226L26.957 39.8095H29.7054L33.3724 32.4782L33.472 32.4891V39.8095ZM33.7914 17.3116H36.1991V0.14463H33.4752V10.3436L29.4135 0.14463H26.9815V17.3116H29.7055V7.11272L33.7914 17.3116ZM21.1409 39.8095H24.1565L20.8002 29.3694V22.6425H18.0763V29.3694L14.7199 39.8095H17.7114L19.4383 33.0102L21.1409 39.8095ZM20.342 17.3116H23.1875L18.9802 0.14463H16.3291L12.0729 17.3116H14.9428L15.6238 13.912H19.6367L20.342 17.3116ZM19.126 11.4768H16.1589L17.6423 4.29173L19.126 11.4768ZM11.46 39.8038L9.15811 36.1475C9.87035 34.89 10.4609 33.0178 10.6271 31.2259H8.36169C8.25146 32.1904 8.02567 33.1502 7.69778 33.841L5.59396 30.6264C6.97997 29.2033 7.84629 27.8782 7.84629 25.817C7.84629 23.7804 6.68293 22.1609 4.28208 22.1609C2.32659 22.1609 0.76723 23.4859 0.76723 26.0624C0.76723 27.5347 1.4851 28.7125 2.62363 30.234C0.94046 31.927 0 33.522 0 35.5096C0 38.3069 1.73259 40 4.13363 40C5.74241 40 6.78203 39.3374 7.74739 38.2578L8.71262 39.8038H11.46ZM5.49486 25.8661C5.49486 27.0438 5.07408 27.6819 4.28208 28.5408C3.53943 27.5593 3.11878 26.7249 3.11878 25.9643C3.11878 25.0563 3.56433 24.4921 4.30679 24.4921C4.97499 24.4921 5.49486 25.0317 5.49486 25.8661ZM6.46029 36.2702C5.81667 37.1781 5.14841 37.6689 4.35628 37.6689C3.2424 37.6689 2.4504 36.7119 2.4504 35.3377C2.4504 34.3564 2.89601 33.3748 3.91073 32.3442L6.46029 36.2702ZM2.79858 5.31399V4.82355C2.79858 4.82304 2.79864 4.82266 2.79864 4.8221C2.79864 3.90595 2.89582 3.3273 3.26071 2.91733C3.5283 2.60402 3.94184 2.43514 4.57406 2.43514C5.18221 2.43514 5.59562 2.62806 5.83869 2.89327C6.22791 3.32729 6.32521 3.90595 6.32521 4.82209H9.04915C9.04915 3.01385 8.7573 1.95287 7.93034 1.13319C7.20075 0.40977 6.08195 0 4.57405 0C3.04189 0 1.8987 0.45807 1.19337 1.13319C0.34471 1.95116 0.09102 3.0881 0.07623 4.76002L0.07476 5.44269C0.07476 7.519 0.90812 8.66139 2.49379 9.30688L3.54794 9.73087L3.55837 9.735L4.85316 10.247C5.83587 10.6311 6.3238 11.2955 6.32527 12.1349V12.6567C6.32527 12.6573 6.32521 12.6577 6.32521 12.6582C6.32521 13.5744 6.22803 14.1531 5.86314 14.563C5.59562 14.8764 5.1822 15.0452 4.54992 15.0452C3.94183 15.0452 3.52829 14.8523 3.28516 14.587C2.89607 14.1531 2.79864 13.5744 2.79864 12.6582H0.07477C0.07477 14.4664 0.36662 15.5274 1.19358 16.3471C1.92317 17.0705 3.04191 17.4803 4.54993 17.4803C6.08196 17.4803 7.22528 17.0223 7.93054 16.3471C8.7792 15.5291 9.03289 14.3922 9.04768 12.7203L9.04915 12.0063C9.04915 9.92994 8.21573 8.81895 6.63005 8.17348L5.57597 7.74949L5.56547 7.74536L4.27069 7.23334C3.28811 6.84927 2.80012 6.1534 2.79858 5.31398V5.31399Z" fill="#FF6F8D"/>
</svg>
