<svg width="30" height="31" viewBox="0 0 30 31" fill="none" xmlns="http://www.w3.org/2000/svg">
<path d="M21.5 27.3C19.6 28.4 17.4 29 15 29C7.5 29 1.5 23 1.5 15.5C1.5 8 7.6 2 15 2C22.5 2 28.5 8 28.5 15.5C28.5 17.1 28.2 18.6 27.7 20" stroke="black" stroke-width="0.8" stroke-miterlimit="10" stroke-linecap="round" stroke-linejoin="round"/>
<path d="M21.6 24.9C19.7 26.2 17.5 27 15 27C8.6 27 3.5 21.9 3.5 15.5C3.5 9.1 8.7 4 15 4C21.4 4 26.5 9.1 26.5 15.5C26.5 17.1 26.2 18.6 25.6 19.9" stroke="black" stroke-width="0.8" stroke-miterlimit="10" stroke-linecap="round" stroke-linejoin="round"/>
<path d="M15 4V27" stroke="black" stroke-width="0.8" stroke-miterlimit="10" stroke-linecap="round" stroke-linejoin="round"/>
<path d="M6.90039 7.40002L22.1004 22.6" stroke="black" stroke-width="0.8" stroke-miterlimit="10" stroke-linecap="round" stroke-linejoin="round"/>
<path d="M3.5 15.5H26.5" stroke="black" stroke-width="0.8" stroke-miterlimit="10" stroke-linecap="round" stroke-linejoin="round"/>
<path d="M6.90039 23.6L23.2004 7.40002" stroke="black" stroke-width="0.8" stroke-miterlimit="10" stroke-linecap="round" stroke-linejoin="round"/>
<path d="M28.5 26.5C28.5 27.9 27.4 29 26 29C24.6 29 23.5 27.9 23.5 26.5C23.5 25.1 26 22 26 22C26 22 28.5 25.1 28.5 26.5Z" stroke="black" stroke-width="0.8" stroke-miterlimit="10" stroke-linecap="round" stroke-linejoin="round"/>
</svg>
