<svg width="32" height="31" viewBox="0 0 32 31" fill="none" xmlns="http://www.w3.org/2000/svg">
<path d="M15.9992 23.4276C18.6534 23.4276 20.805 21.2459 20.805 18.5548C20.805 15.8636 18.6534 13.682 15.9992 13.682C13.345 13.682 11.1934 15.8636 11.1934 18.5548C11.1934 21.2459 13.345 23.4276 15.9992 23.4276Z" stroke="black" stroke-width="0.8" stroke-miterlimit="10" stroke-linecap="round" stroke-linejoin="round"/>
<path d="M15.9997 7.59097C17.6586 7.59097 19.0034 6.22746 19.0034 4.54549C19.0034 2.86351 17.6586 1.5 15.9997 1.5C14.3409 1.5 12.9961 2.86351 12.9961 4.54549C12.9961 6.22746 14.3409 7.59097 15.9997 7.59097Z" stroke="black" stroke-width="0.8" stroke-miterlimit="10" stroke-linecap="round" stroke-linejoin="round"/>
<path d="M16 13.6819V7.59094" stroke="black" stroke-width="0.8" stroke-miterlimit="10" stroke-linecap="round" stroke-linejoin="round"/>
<path d="M26.5129 29.1124C27.9146 29.9245 29.8169 29.4169 30.6179 27.9957C31.4188 26.5744 30.9182 24.6456 29.5165 23.8335C28.1148 23.0214 26.2125 23.529 25.4116 24.9502C24.6106 26.3714 25.1112 28.3002 26.5129 29.1124Z" stroke="black" stroke-width="0.8" stroke-miterlimit="10" stroke-linecap="round" stroke-linejoin="round"/>
<path d="M5.48724 29.1124C4.08554 29.9245 2.18323 29.4169 1.38226 27.9957C0.581291 26.5744 1.0819 24.6456 2.4836 23.8335C3.8853 23.0214 5.78761 23.529 6.58858 24.9502C7.38955 26.3714 6.88894 28.3002 5.48724 29.1124Z" stroke="black" stroke-width="0.8" stroke-miterlimit="10" stroke-linecap="round" stroke-linejoin="round"/>
<path d="M11.995 21.1941L6.48828 24.8487" stroke="black" stroke-width="0.8" stroke-miterlimit="10" stroke-linecap="round" stroke-linejoin="round"/>
<path d="M25.5125 24.8487L20.0059 21.1941" stroke="black" stroke-width="0.8" stroke-miterlimit="10" stroke-linecap="round" stroke-linejoin="round"/>
</svg>
