<svg width="30" height="31" viewBox="0 0 30 31" fill="none" xmlns="http://www.w3.org/2000/svg">
<path d="M15.2897 21.2763C17.5812 21.2763 19.4389 19.3915 19.4389 17.0665C19.4389 14.7415 17.5812 12.8567 15.2897 12.8567C12.9983 12.8567 11.1406 14.7415 11.1406 17.0665C11.1406 19.3915 12.9983 21.2763 15.2897 21.2763Z" stroke="black" stroke-width="0.7" stroke-miterlimit="10" stroke-linecap="round" stroke-linejoin="round"/>
<path d="M18.0873 17.1644C18.0873 18.7309 16.8329 20.0036 15.2891 20.0036" stroke="black" stroke-width="0.4" stroke-miterlimit="10" stroke-linecap="round" stroke-linejoin="round"/>
<path d="M20.4033 10.8986C21.7889 10.8986 22.9121 9.75901 22.9121 8.35319C22.9121 6.94738 21.7889 5.80774 20.4033 5.80774C19.0177 5.80774 17.8945 6.94738 17.8945 8.35319C17.8945 9.75901 19.0177 10.8986 20.4033 10.8986Z" stroke="black" stroke-width="0.7" stroke-miterlimit="10" stroke-linecap="round" stroke-linejoin="round"/>
<path d="M21.9472 8.35315C21.9472 9.23427 21.2717 9.91958 20.4033 9.91958" stroke="black" stroke-width="0.4" stroke-miterlimit="10" stroke-linecap="round" stroke-linejoin="round"/>
<path d="M5.73684 21.2762C6.69607 21.2762 7.47368 20.4872 7.47368 19.5139C7.47368 18.5407 6.69607 17.7517 5.73684 17.7517C4.77761 17.7517 4 18.5407 4 19.5139C4 20.4872 4.77761 21.2762 5.73684 21.2762Z" stroke="black" stroke-width="0.7" stroke-miterlimit="10" stroke-linecap="round" stroke-linejoin="round"/>
<path d="M6.70222 19.6119C6.70222 20.1014 6.31625 20.591 5.7373 20.591" stroke="black" stroke-width="0.4" stroke-miterlimit="10" stroke-linecap="round" stroke-linejoin="round"/>
<path d="M7.47363 19.1225L11.2368 18.2413" stroke="black" stroke-width="0.7" stroke-miterlimit="10" stroke-linecap="round" stroke-linejoin="round"/>
<path d="M17.2197 13.2483L18.8601 10.5071" stroke="black" stroke-width="0.7" stroke-miterlimit="10" stroke-linecap="round" stroke-linejoin="round"/>
<path d="M22.0441 10.4091C23.9739 14.3252 25.8073 18.535 25.8073 20.7867C25.8073 25.5839 21.9476 29.5 17.2196 29.5C12.4915 29.5 8.63184 25.5839 8.63184 20.7867C8.63184 15.9895 17.2196 1.5 17.2196 1.5C17.2196 1.5 18.281 3.26224 19.6318 5.80769" stroke="black" stroke-width="0.8" stroke-miterlimit="10" stroke-linecap="round" stroke-linejoin="round"/>
<path d="M25.9997 24.6049C25.9997 25.6818 25.1313 26.4651 24.1663 26.4651C23.1049 26.4651 22.333 25.5839 22.333 24.6049C22.333 23.528 24.1663 21.2762 24.1663 21.2762C24.1663 21.2762 25.9997 23.6259 25.9997 24.6049Z" fill="#D9D9D9" stroke="black" stroke-width="0.7" stroke-miterlimit="10" stroke-linecap="round" stroke-linejoin="round"/>
<path d="M12.3938 5.26488C12.3938 6.09557 11.7907 6.68891 10.9464 6.68891C10.1021 6.68891 9.49902 6.09557 9.49902 5.26488C9.49902 4.4342 10.9464 2.77283 10.9464 2.77283C10.9464 2.77283 12.3938 4.55287 12.3938 5.26488Z" stroke="black" stroke-width="0.7" stroke-miterlimit="10" stroke-linecap="round" stroke-linejoin="round"/>
</svg>
