<svg width="30" height="31" viewBox="0 0 30 31" fill="none" xmlns="http://www.w3.org/2000/svg">
<path d="M6.9932 27.4118C6.9932 28.3052 6.29478 29.0001 5.4966 29.0001C4.69841 29.0001 4 28.3052 4 27.4118C4 27.114 4.09977 26.9155 4.19955 26.6177L5.4966 23.9376L6.79365 26.6177C6.9932 26.8162 6.9932 27.114 6.9932 27.4118Z" stroke="black" stroke-width="0.8" stroke-miterlimit="10" stroke-linecap="round" stroke-linejoin="round"/>
<path d="M16.482 4.50112L12.5312 8.43176L19.6568 15.521L23.6075 11.5903L16.482 4.50112Z" stroke="black" stroke-width="0.8" stroke-miterlimit="10" stroke-linecap="round" stroke-linejoin="round"/>
<path d="M18.0684 6.06979L21.2611 2.89332C21.76 2.397 22.5582 1.99994 23.2566 1.99994C24.0548 1.99994 24.7532 2.29773 25.252 2.89332C26.2498 3.88597 26.2498 5.67273 25.252 6.66538L21.8597 10.0404" stroke="black" stroke-width="0.8" stroke-miterlimit="10" stroke-linecap="round" stroke-linejoin="round"/>
<path d="M14.8746 10.7353L8.18981 17.386C7.49139 18.0809 6.89276 18.9743 6.59344 19.9669L5.5957 20.9596L7.0923 22.4485L8.09003 21.4559C9.08777 21.1581 9.98573 20.5625 10.6841 19.8676L17.3689 13.2169" stroke="black" stroke-width="0.8" stroke-miterlimit="10" stroke-linecap="round" stroke-linejoin="round"/>
</svg>
