<svg width="32" height="26" viewBox="0 0 32 26" fill="none" xmlns="http://www.w3.org/2000/svg">
<mask id="path-1-outside-1_907_60305" maskUnits="userSpaceOnUse" x="0" y="0" width="32" height="26" fill="black">
<rect fill="white" width="32" height="26"/>
<path d="M16.0048 25C13.7474 25 12.9501 23.1235 12.9501 21.491C12.973 20.5061 13.1545 19.5309 13.488 18.6012C13.8343 17.6551 14.0193 16.6599 14.0356 15.6552C14.0368 15.4885 14.0042 15.3232 13.9395 15.169C13.8747 15.0148 13.7793 14.8746 13.6586 14.7568C13.5379 14.6389 13.3944 14.5457 13.2365 14.4824C13.0786 14.4192 12.9094 14.3873 12.7387 14.3886H1.33636C1.29184 14.3899 1.24753 14.3823 1.20614 14.3662C1.16475 14.3502 1.12715 14.326 1.09566 14.2953C1.06417 14.2645 1.03945 14.2278 1.02303 14.1874C1.0066 14.147 0.998816 14.1037 1.00015 14.0602C1.00015 14.0171 1.00884 13.9744 1.02574 13.9345C1.04263 13.8947 1.0674 13.8585 1.09862 13.828C1.12984 13.7975 1.1669 13.7733 1.20769 13.7568C1.24849 13.7403 1.29221 13.7318 1.33636 13.7318H12.7387C12.9991 13.7254 13.2582 13.7707 13.5001 13.8651C13.742 13.9595 13.9617 14.1009 14.1459 14.2808C14.3301 14.4607 14.4749 14.6753 14.5715 14.9116C14.6682 15.1479 14.7146 15.4009 14.708 15.6552C14.6947 16.7268 14.5 17.7888 14.1316 18.7983C13.8158 19.6636 13.6439 20.5726 13.6225 21.491C13.6225 22.1572 13.7954 24.3057 16.0048 24.3057C18.2142 24.3057 18.3775 22.1196 18.3775 21.491C18.3561 20.5726 18.1842 19.6636 17.8684 18.7983C17.5047 17.7876 17.3101 16.7263 17.292 15.6552C17.2854 15.4009 17.3318 15.1479 17.4285 14.9116C17.5251 14.6753 17.6699 14.4607 17.8541 14.2808C18.0383 14.1009 18.258 13.9595 18.4999 13.8651C18.7418 13.7707 19.0009 13.7254 19.2613 13.7318H30.6636C30.7078 13.7318 30.7515 13.7403 30.7923 13.7568C30.8331 13.7733 30.8702 13.7975 30.9014 13.828C30.9326 13.8585 30.9574 13.8947 30.9743 13.9345C30.9912 13.9744 30.9999 14.0171 30.9999 14.0602C31.0012 14.1037 30.9934 14.147 30.977 14.1874C30.9605 14.2278 30.9358 14.2645 30.9043 14.2953C30.8729 14.326 30.8353 14.3502 30.7939 14.3662C30.7525 14.3823 30.7082 14.3899 30.6636 14.3886H19.2613C19.0906 14.3873 18.9214 14.4192 18.7635 14.4824C18.6056 14.5457 18.4621 14.6389 18.3414 14.7568C18.2207 14.8746 18.1253 15.0148 18.0606 15.169C17.9958 15.3232 17.9632 15.4885 17.9644 15.6552C17.9808 16.6599 18.1657 17.6551 18.512 18.6012C18.8572 19.5285 19.0454 20.5046 19.0691 21.491C19.0691 23.1048 18.2526 25 16.0048 25Z"/>
<path d="M12.7387 10.1478C12.6495 10.1478 12.564 10.1132 12.501 10.0516C12.4379 9.99002 12.4025 9.90649 12.4025 9.8194C12.4025 7.22049 11.0576 5.89758 8.39676 5.89758C8.30759 5.89758 8.22207 5.86298 8.15902 5.8014C8.09597 5.73982 8.06055 5.65629 8.06055 5.5692C8.06055 5.48211 8.09597 5.39858 8.15902 5.337C8.22207 5.27541 8.30759 5.24082 8.39676 5.24082C11.0576 5.24082 12.4025 3.92729 12.4025 1.32838C12.4025 1.24129 12.4379 1.15776 12.501 1.09618C12.564 1.0346 12.6495 1 12.7387 1C12.8279 1 12.9134 1.0346 12.9764 1.09618C13.0395 1.15776 13.0749 1.24129 13.0749 1.32838C13.0749 3.92729 14.4294 5.24082 17.0902 5.24082C17.1794 5.24082 17.2649 5.27541 17.328 5.337C17.391 5.39858 17.4265 5.48211 17.4265 5.5692C17.4265 5.65629 17.391 5.73982 17.328 5.8014C17.2649 5.86298 17.1794 5.89758 17.0902 5.89758C14.4294 5.89758 13.0749 7.22049 13.0749 9.8194C13.0749 9.90649 13.0395 9.99002 12.9764 10.0516C12.9134 10.1132 12.8279 10.1478 12.7387 10.1478ZM10.4813 5.5692C11.0033 5.74967 11.4771 6.04233 11.8678 6.42556C12.2585 6.8088 12.5561 7.27284 12.7387 7.78343C12.9229 7.2722 13.2222 6.80785 13.6145 6.42463C14.0069 6.04141 14.4823 5.74908 15.0057 5.5692C14.4819 5.3927 14.0059 5.10265 13.6132 4.72079C13.2206 4.33893 12.9216 3.87519 12.7387 3.36435C12.5574 3.87454 12.2601 4.33798 11.8691 4.71985C11.4781 5.10172 11.0036 5.39211 10.4813 5.5692Z"/>
<path d="M20.3454 12.2682C20.2562 12.2682 20.1707 12.2336 20.1077 12.1721C20.0446 12.1105 20.0092 12.027 20.0092 11.9399C20.0575 11.559 20.0161 11.1723 19.8884 10.8094C19.7606 10.4464 19.5498 10.1167 19.2719 9.84527C18.994 9.57388 18.6565 9.36795 18.2848 9.24317C17.9132 9.11838 17.5174 9.07802 17.1274 9.12516C17.0382 9.12516 16.9527 9.09056 16.8896 9.02898C16.8266 8.9674 16.7912 8.88387 16.7912 8.79678C16.7898 8.7533 16.7976 8.71002 16.814 8.66959C16.8305 8.62916 16.8552 8.59244 16.8867 8.56169C16.9182 8.53093 16.9558 8.50679 16.9972 8.49075C17.0385 8.4747 17.0829 8.4671 17.1274 8.4684C17.5215 8.51514 17.9214 8.47287 18.2962 8.34486C18.6709 8.21684 19.0106 8.0065 19.2891 7.73003C19.5675 7.45357 19.7772 7.11836 19.902 6.75024C20.0269 6.38212 20.0636 5.99092 20.0092 5.60678C20.0092 5.51969 20.0446 5.43617 20.1077 5.37458C20.1707 5.313 20.2562 5.2784 20.3454 5.2784C20.4346 5.2784 20.5201 5.313 20.5831 5.37458C20.6462 5.43617 20.6816 5.51969 20.6816 5.60678C20.6273 5.99092 20.6639 6.38212 20.7888 6.75024C20.9136 7.11836 21.1233 7.45357 21.4018 7.73003C21.6802 8.0065 22.0199 8.21684 22.3946 8.34486C22.7694 8.47287 23.1693 8.51514 23.5634 8.4684C23.6079 8.4671 23.6523 8.4747 23.6936 8.49075C23.735 8.50679 23.7726 8.53093 23.8041 8.56169C23.8356 8.59244 23.8603 8.62916 23.8768 8.66959C23.8932 8.71002 23.901 8.7533 23.8996 8.79678C23.8996 8.88387 23.8642 8.9674 23.8012 9.02898C23.7381 9.09056 23.6526 9.12516 23.5634 9.12516C23.1734 9.07802 22.7776 9.11838 22.406 9.24317C22.0343 9.36795 21.6968 9.57388 21.4189 9.84527C21.141 10.1167 20.9302 10.4464 20.8024 10.8094C20.6747 11.1723 20.6334 11.559 20.6816 11.9399C20.6816 12.027 20.6462 12.1105 20.5831 12.1721C20.5201 12.2336 20.4346 12.2682 20.3454 12.2682ZM18.8757 8.75925C19.5362 9.03075 20.0631 9.54201 20.3454 10.1854C20.6271 9.54486 21.1497 9.03438 21.8055 8.75925C21.1485 8.48107 20.6259 7.96725 20.3454 7.32375C20.0634 7.96953 19.5368 8.48386 18.8757 8.75925Z"/>
</mask>
<path d="M16.0048 25C13.7474 25 12.9501 23.1235 12.9501 21.491C12.973 20.5061 13.1545 19.5309 13.488 18.6012C13.8343 17.6551 14.0193 16.6599 14.0356 15.6552C14.0368 15.4885 14.0042 15.3232 13.9395 15.169C13.8747 15.0148 13.7793 14.8746 13.6586 14.7568C13.5379 14.6389 13.3944 14.5457 13.2365 14.4824C13.0786 14.4192 12.9094 14.3873 12.7387 14.3886H1.33636C1.29184 14.3899 1.24753 14.3823 1.20614 14.3662C1.16475 14.3502 1.12715 14.326 1.09566 14.2953C1.06417 14.2645 1.03945 14.2278 1.02303 14.1874C1.0066 14.147 0.998816 14.1037 1.00015 14.0602C1.00015 14.0171 1.00884 13.9744 1.02574 13.9345C1.04263 13.8947 1.0674 13.8585 1.09862 13.828C1.12984 13.7975 1.1669 13.7733 1.20769 13.7568C1.24849 13.7403 1.29221 13.7318 1.33636 13.7318H12.7387C12.9991 13.7254 13.2582 13.7707 13.5001 13.8651C13.742 13.9595 13.9617 14.1009 14.1459 14.2808C14.3301 14.4607 14.4749 14.6753 14.5715 14.9116C14.6682 15.1479 14.7146 15.4009 14.708 15.6552C14.6947 16.7268 14.5 17.7888 14.1316 18.7983C13.8158 19.6636 13.6439 20.5726 13.6225 21.491C13.6225 22.1572 13.7954 24.3057 16.0048 24.3057C18.2142 24.3057 18.3775 22.1196 18.3775 21.491C18.3561 20.5726 18.1842 19.6636 17.8684 18.7983C17.5047 17.7876 17.3101 16.7263 17.292 15.6552C17.2854 15.4009 17.3318 15.1479 17.4285 14.9116C17.5251 14.6753 17.6699 14.4607 17.8541 14.2808C18.0383 14.1009 18.258 13.9595 18.4999 13.8651C18.7418 13.7707 19.0009 13.7254 19.2613 13.7318H30.6636C30.7078 13.7318 30.7515 13.7403 30.7923 13.7568C30.8331 13.7733 30.8702 13.7975 30.9014 13.828C30.9326 13.8585 30.9574 13.8947 30.9743 13.9345C30.9912 13.9744 30.9999 14.0171 30.9999 14.0602C31.0012 14.1037 30.9934 14.147 30.977 14.1874C30.9605 14.2278 30.9358 14.2645 30.9043 14.2953C30.8729 14.326 30.8353 14.3502 30.7939 14.3662C30.7525 14.3823 30.7082 14.3899 30.6636 14.3886H19.2613C19.0906 14.3873 18.9214 14.4192 18.7635 14.4824C18.6056 14.5457 18.4621 14.6389 18.3414 14.7568C18.2207 14.8746 18.1253 15.0148 18.0606 15.169C17.9958 15.3232 17.9632 15.4885 17.9644 15.6552C17.9808 16.6599 18.1657 17.6551 18.512 18.6012C18.8572 19.5285 19.0454 20.5046 19.0691 21.491C19.0691 23.1048 18.2526 25 16.0048 25Z" fill="black"/>
<path d="M12.7387 10.1478C12.6495 10.1478 12.564 10.1132 12.501 10.0516C12.4379 9.99002 12.4025 9.90649 12.4025 9.8194C12.4025 7.22049 11.0576 5.89758 8.39676 5.89758C8.30759 5.89758 8.22207 5.86298 8.15902 5.8014C8.09597 5.73982 8.06055 5.65629 8.06055 5.5692C8.06055 5.48211 8.09597 5.39858 8.15902 5.337C8.22207 5.27541 8.30759 5.24082 8.39676 5.24082C11.0576 5.24082 12.4025 3.92729 12.4025 1.32838C12.4025 1.24129 12.4379 1.15776 12.501 1.09618C12.564 1.0346 12.6495 1 12.7387 1C12.8279 1 12.9134 1.0346 12.9764 1.09618C13.0395 1.15776 13.0749 1.24129 13.0749 1.32838C13.0749 3.92729 14.4294 5.24082 17.0902 5.24082C17.1794 5.24082 17.2649 5.27541 17.328 5.337C17.391 5.39858 17.4265 5.48211 17.4265 5.5692C17.4265 5.65629 17.391 5.73982 17.328 5.8014C17.2649 5.86298 17.1794 5.89758 17.0902 5.89758C14.4294 5.89758 13.0749 7.22049 13.0749 9.8194C13.0749 9.90649 13.0395 9.99002 12.9764 10.0516C12.9134 10.1132 12.8279 10.1478 12.7387 10.1478ZM10.4813 5.5692C11.0033 5.74967 11.4771 6.04233 11.8678 6.42556C12.2585 6.8088 12.5561 7.27284 12.7387 7.78343C12.9229 7.2722 13.2222 6.80785 13.6145 6.42463C14.0069 6.04141 14.4823 5.74908 15.0057 5.5692C14.4819 5.3927 14.0059 5.10265 13.6132 4.72079C13.2206 4.33893 12.9216 3.87519 12.7387 3.36435C12.5574 3.87454 12.2601 4.33798 11.8691 4.71985C11.4781 5.10172 11.0036 5.39211 10.4813 5.5692Z" fill="black"/>
<path d="M20.3454 12.2682C20.2562 12.2682 20.1707 12.2336 20.1077 12.1721C20.0446 12.1105 20.0092 12.027 20.0092 11.9399C20.0575 11.559 20.0161 11.1723 19.8884 10.8094C19.7606 10.4464 19.5498 10.1167 19.2719 9.84527C18.994 9.57388 18.6565 9.36795 18.2848 9.24317C17.9132 9.11838 17.5174 9.07802 17.1274 9.12516C17.0382 9.12516 16.9527 9.09056 16.8896 9.02898C16.8266 8.9674 16.7912 8.88387 16.7912 8.79678C16.7898 8.7533 16.7976 8.71002 16.814 8.66959C16.8305 8.62916 16.8552 8.59244 16.8867 8.56169C16.9182 8.53093 16.9558 8.50679 16.9972 8.49075C17.0385 8.4747 17.0829 8.4671 17.1274 8.4684C17.5215 8.51514 17.9214 8.47287 18.2962 8.34486C18.6709 8.21684 19.0106 8.0065 19.2891 7.73003C19.5675 7.45357 19.7772 7.11836 19.902 6.75024C20.0269 6.38212 20.0636 5.99092 20.0092 5.60678C20.0092 5.51969 20.0446 5.43617 20.1077 5.37458C20.1707 5.313 20.2562 5.2784 20.3454 5.2784C20.4346 5.2784 20.5201 5.313 20.5831 5.37458C20.6462 5.43617 20.6816 5.51969 20.6816 5.60678C20.6273 5.99092 20.6639 6.38212 20.7888 6.75024C20.9136 7.11836 21.1233 7.45357 21.4018 7.73003C21.6802 8.0065 22.0199 8.21684 22.3946 8.34486C22.7694 8.47287 23.1693 8.51514 23.5634 8.4684C23.6079 8.4671 23.6523 8.4747 23.6936 8.49075C23.735 8.50679 23.7726 8.53093 23.8041 8.56169C23.8356 8.59244 23.8603 8.62916 23.8768 8.66959C23.8932 8.71002 23.901 8.7533 23.8996 8.79678C23.8996 8.88387 23.8642 8.9674 23.8012 9.02898C23.7381 9.09056 23.6526 9.12516 23.5634 9.12516C23.1734 9.07802 22.7776 9.11838 22.406 9.24317C22.0343 9.36795 21.6968 9.57388 21.4189 9.84527C21.141 10.1167 20.9302 10.4464 20.8024 10.8094C20.6747 11.1723 20.6334 11.559 20.6816 11.9399C20.6816 12.027 20.6462 12.1105 20.5831 12.1721C20.5201 12.2336 20.4346 12.2682 20.3454 12.2682ZM18.8757 8.75925C19.5362 9.03075 20.0631 9.54201 20.3454 10.1854C20.6271 9.54486 21.1497 9.03438 21.8055 8.75925C21.1485 8.48107 20.6259 7.96725 20.3454 7.32375C20.0634 7.96953 19.5368 8.48386 18.8757 8.75925Z" fill="black"/>
<path d="M16.0048 25C13.7474 25 12.9501 23.1235 12.9501 21.491C12.973 20.5061 13.1545 19.5309 13.488 18.6012C13.8343 17.6551 14.0193 16.6599 14.0356 15.6552C14.0368 15.4885 14.0042 15.3232 13.9395 15.169C13.8747 15.0148 13.7793 14.8746 13.6586 14.7568C13.5379 14.6389 13.3944 14.5457 13.2365 14.4824C13.0786 14.4192 12.9094 14.3873 12.7387 14.3886H1.33636C1.29184 14.3899 1.24753 14.3823 1.20614 14.3662C1.16475 14.3502 1.12715 14.326 1.09566 14.2953C1.06417 14.2645 1.03945 14.2278 1.02303 14.1874C1.0066 14.147 0.998816 14.1037 1.00015 14.0602C1.00015 14.0171 1.00884 13.9744 1.02574 13.9345C1.04263 13.8947 1.0674 13.8585 1.09862 13.828C1.12984 13.7975 1.1669 13.7733 1.20769 13.7568C1.24849 13.7403 1.29221 13.7318 1.33636 13.7318H12.7387C12.9991 13.7254 13.2582 13.7707 13.5001 13.8651C13.742 13.9595 13.9617 14.1009 14.1459 14.2808C14.3301 14.4607 14.4749 14.6753 14.5715 14.9116C14.6682 15.1479 14.7146 15.4009 14.708 15.6552C14.6947 16.7268 14.5 17.7888 14.1316 18.7983C13.8158 19.6636 13.6439 20.5726 13.6225 21.491C13.6225 22.1572 13.7954 24.3057 16.0048 24.3057C18.2142 24.3057 18.3775 22.1196 18.3775 21.491C18.3561 20.5726 18.1842 19.6636 17.8684 18.7983C17.5047 17.7876 17.3101 16.7263 17.292 15.6552C17.2854 15.4009 17.3318 15.1479 17.4285 14.9116C17.5251 14.6753 17.6699 14.4607 17.8541 14.2808C18.0383 14.1009 18.258 13.9595 18.4999 13.8651C18.7418 13.7707 19.0009 13.7254 19.2613 13.7318H30.6636C30.7078 13.7318 30.7515 13.7403 30.7923 13.7568C30.8331 13.7733 30.8702 13.7975 30.9014 13.828C30.9326 13.8585 30.9574 13.8947 30.9743 13.9345C30.9912 13.9744 30.9999 14.0171 30.9999 14.0602C31.0012 14.1037 30.9934 14.147 30.977 14.1874C30.9605 14.2278 30.9358 14.2645 30.9043 14.2953C30.8729 14.326 30.8353 14.3502 30.7939 14.3662C30.7525 14.3823 30.7082 14.3899 30.6636 14.3886H19.2613C19.0906 14.3873 18.9214 14.4192 18.7635 14.4824C18.6056 14.5457 18.4621 14.6389 18.3414 14.7568C18.2207 14.8746 18.1253 15.0148 18.0606 15.169C17.9958 15.3232 17.9632 15.4885 17.9644 15.6552C17.9808 16.6599 18.1657 17.6551 18.512 18.6012C18.8572 19.5285 19.0454 20.5046 19.0691 21.491C19.0691 23.1048 18.2526 25 16.0048 25Z" stroke="black" stroke-width="0.2" mask="url(#path-1-outside-1_907_60305)"/>
<path d="M12.7387 10.1478C12.6495 10.1478 12.564 10.1132 12.501 10.0516C12.4379 9.99002 12.4025 9.90649 12.4025 9.8194C12.4025 7.22049 11.0576 5.89758 8.39676 5.89758C8.30759 5.89758 8.22207 5.86298 8.15902 5.8014C8.09597 5.73982 8.06055 5.65629 8.06055 5.5692C8.06055 5.48211 8.09597 5.39858 8.15902 5.337C8.22207 5.27541 8.30759 5.24082 8.39676 5.24082C11.0576 5.24082 12.4025 3.92729 12.4025 1.32838C12.4025 1.24129 12.4379 1.15776 12.501 1.09618C12.564 1.0346 12.6495 1 12.7387 1C12.8279 1 12.9134 1.0346 12.9764 1.09618C13.0395 1.15776 13.0749 1.24129 13.0749 1.32838C13.0749 3.92729 14.4294 5.24082 17.0902 5.24082C17.1794 5.24082 17.2649 5.27541 17.328 5.337C17.391 5.39858 17.4265 5.48211 17.4265 5.5692C17.4265 5.65629 17.391 5.73982 17.328 5.8014C17.2649 5.86298 17.1794 5.89758 17.0902 5.89758C14.4294 5.89758 13.0749 7.22049 13.0749 9.8194C13.0749 9.90649 13.0395 9.99002 12.9764 10.0516C12.9134 10.1132 12.8279 10.1478 12.7387 10.1478ZM10.4813 5.5692C11.0033 5.74967 11.4771 6.04233 11.8678 6.42556C12.2585 6.8088 12.5561 7.27284 12.7387 7.78343C12.9229 7.2722 13.2222 6.80785 13.6145 6.42463C14.0069 6.04141 14.4823 5.74908 15.0057 5.5692C14.4819 5.3927 14.0059 5.10265 13.6132 4.72079C13.2206 4.33893 12.9216 3.87519 12.7387 3.36435C12.5574 3.87454 12.2601 4.33798 11.8691 4.71985C11.4781 5.10172 11.0036 5.39211 10.4813 5.5692Z" stroke="black" stroke-width="0.2" mask="url(#path-1-outside-1_907_60305)"/>
<path d="M20.3454 12.2682C20.2562 12.2682 20.1707 12.2336 20.1077 12.1721C20.0446 12.1105 20.0092 12.027 20.0092 11.9399C20.0575 11.559 20.0161 11.1723 19.8884 10.8094C19.7606 10.4464 19.5498 10.1167 19.2719 9.84527C18.994 9.57388 18.6565 9.36795 18.2848 9.24317C17.9132 9.11838 17.5174 9.07802 17.1274 9.12516C17.0382 9.12516 16.9527 9.09056 16.8896 9.02898C16.8266 8.9674 16.7912 8.88387 16.7912 8.79678C16.7898 8.7533 16.7976 8.71002 16.814 8.66959C16.8305 8.62916 16.8552 8.59244 16.8867 8.56169C16.9182 8.53093 16.9558 8.50679 16.9972 8.49075C17.0385 8.4747 17.0829 8.4671 17.1274 8.4684C17.5215 8.51514 17.9214 8.47287 18.2962 8.34486C18.6709 8.21684 19.0106 8.0065 19.2891 7.73003C19.5675 7.45357 19.7772 7.11836 19.902 6.75024C20.0269 6.38212 20.0636 5.99092 20.0092 5.60678C20.0092 5.51969 20.0446 5.43617 20.1077 5.37458C20.1707 5.313 20.2562 5.2784 20.3454 5.2784C20.4346 5.2784 20.5201 5.313 20.5831 5.37458C20.6462 5.43617 20.6816 5.51969 20.6816 5.60678C20.6273 5.99092 20.6639 6.38212 20.7888 6.75024C20.9136 7.11836 21.1233 7.45357 21.4018 7.73003C21.6802 8.0065 22.0199 8.21684 22.3946 8.34486C22.7694 8.47287 23.1693 8.51514 23.5634 8.4684C23.6079 8.4671 23.6523 8.4747 23.6936 8.49075C23.735 8.50679 23.7726 8.53093 23.8041 8.56169C23.8356 8.59244 23.8603 8.62916 23.8768 8.66959C23.8932 8.71002 23.901 8.7533 23.8996 8.79678C23.8996 8.88387 23.8642 8.9674 23.8012 9.02898C23.7381 9.09056 23.6526 9.12516 23.5634 9.12516C23.1734 9.07802 22.7776 9.11838 22.406 9.24317C22.0343 9.36795 21.6968 9.57388 21.4189 9.84527C21.141 10.1167 20.9302 10.4464 20.8024 10.8094C20.6747 11.1723 20.6334 11.559 20.6816 11.9399C20.6816 12.027 20.6462 12.1105 20.5831 12.1721C20.5201 12.2336 20.4346 12.2682 20.3454 12.2682ZM18.8757 8.75925C19.5362 9.03075 20.0631 9.54201 20.3454 10.1854C20.6271 9.54486 21.1497 9.03438 21.8055 8.75925C21.1485 8.48107 20.6259 7.96725 20.3454 7.32375C20.0634 7.96953 19.5368 8.48386 18.8757 8.75925Z" stroke="black" stroke-width="0.2" mask="url(#path-1-outside-1_907_60305)"/>
</svg>
