<svg width="170" height="100" viewBox="0 0 170 100" fill="none" xmlns="http://www.w3.org/2000/svg">
<path d="M74.7018 56.7216C69.7159 61.0712 65.202 65.8891 61.1638 71.1658C59.9367 72.7667 62.1342 75.0415 63.3726 73.4236C67.4108 68.147 71.9266 63.3292 76.9125 58.9795C78.4436 57.6428 76.2234 55.3925 74.7018 56.7216" fill="#CC3195"/>
<path d="M66.7158 35.5139C60.6444 34.0773 54.4974 33.3712 48.2656 33.4146C46.2549 33.4278 46.2493 36.6203 48.2656 36.607C54.2256 36.5655 60.0742 37.2187 65.8851 38.5931C67.8429 39.0556 68.6792 35.9783 66.7158 35.5139Z" fill="#CC3195"/>
<path d="M82.4718 20.4466C81.1125 17.358 79.7551 14.2694 78.3958 11.1809C77.5708 9.31186 74.8768 10.9317 75.6962 12.7931C77.0554 15.8817 78.4147 18.9703 79.7721 22.0588C80.5971 23.9297 83.2911 22.3061 82.4718 20.4466Z" fill="#CC3195"/>
<path d="M103.816 21.9295C108.315 17.9858 112.815 14.04 117.314 10.0944C118.843 8.75401 116.625 6.50553 115.103 7.8365C110.605 11.7822 106.104 15.7279 101.605 19.6716C100.076 21.012 102.296 23.2624 103.816 21.9295Z" fill="#CC3195"/>
<path d="M102.249 48.1973C108.515 49.6265 114.782 51.0556 121.048 52.4847C123.008 52.9321 123.844 49.8549 121.879 49.4074C115.613 47.9764 109.347 46.5473 103.079 45.1182C101.12 44.6707 100.284 47.748 102.249 48.1973" fill="#CC3195"/>
<path d="M91.6145 60.7226C93.3457 64.8703 95.075 69.0161 96.8061 73.1618C97.5934 75.046 100.286 73.4224 99.5058 71.5496C97.7746 67.4038 96.0434 63.258 94.3123 59.1104C93.5269 57.2263 90.8329 58.8517 91.6145 60.7226" fill="#CC3195"/>
<path d="M139.406 87.206C136.247 90.4287 133.387 93.9948 130.829 97.9027C130.053 99.0864 131.445 100.772 132.23 99.5736C134.788 95.6656 137.648 92.0994 140.807 88.8787C141.775 87.8875 140.371 86.2224 139.406 87.206Z" fill="#CC3195"/>
<path d="M139.406 87.206C136.247 90.4287 133.387 93.9948 130.829 97.9027C130.053 99.0864 131.445 100.772 132.23 99.5736C134.788 95.6656 137.648 92.0994 140.807 88.8787C141.775 87.8875 140.371 86.2224 139.406 87.206Z" fill="#CC3195"/>
<path d="M134.347 71.5027C130.5 70.4398 126.607 69.9169 122.659 69.9472C121.385 69.9585 121.381 72.3221 122.659 72.3126C126.435 72.2825 130.139 72.7638 133.82 73.7833C135.059 74.125 135.589 71.8463 134.347 71.5027" fill="#CC3195"/>
<path d="M134.347 71.5027C130.5 70.4398 126.607 69.9169 122.659 69.9472C121.385 69.9585 121.381 72.3221 122.659 72.3126C126.435 72.2825 130.139 72.7638 133.82 73.7833C135.059 74.125 135.589 71.8463 134.347 71.5027" fill="#CC3195"/>
<path d="M144.328 60.3478C143.467 58.0597 142.606 55.7735 141.745 53.4872C141.222 52.1034 139.517 53.3022 140.037 54.6804C140.897 56.9647 141.758 59.2528 142.617 61.5391C143.14 62.9267 144.847 61.7241 144.328 60.3478Z" fill="#CC3195"/>
<path d="M144.328 60.3478C143.467 58.0597 142.606 55.7735 141.745 53.4872C141.222 52.1034 139.517 53.3022 140.037 54.6804C140.897 56.9647 141.758 59.2528 142.617 61.5391C143.14 62.9267 144.847 61.7241 144.328 60.3478Z" fill="#CC3195"/>
<path d="M157.849 61.4443C160.7 58.5237 163.55 55.6032 166.399 52.6808C167.368 51.6896 165.961 50.0226 165 51.01L156.448 59.7735C155.48 60.7647 156.886 62.4298 157.849 61.4443Z" fill="#CC3195"/>
<path d="M157.849 61.4443C160.7 58.5237 163.55 55.6032 166.399 52.6808C167.368 51.6896 165.961 50.0226 165 51.01L156.448 59.7735C155.48 60.7647 156.886 62.4298 157.849 61.4443Z" fill="#CC3195"/>
<path d="M156.856 80.8929L168.764 84.0683C170.005 84.3987 170.535 82.1201 169.289 81.7878L157.382 78.6124C156.14 78.282 155.61 80.5607 156.856 80.8929Z" fill="#CC3195"/>
<path d="M156.856 80.8929L168.764 84.0683C170.005 84.3987 170.535 82.1201 169.289 81.7878L157.382 78.6124C156.14 78.282 155.61 80.5607 156.856 80.8929Z" fill="#CC3195"/>
<path d="M150.12 90.1688C151.217 93.2385 152.314 96.3082 153.409 99.3798C153.907 100.775 155.614 99.5705 155.119 98.1867C154.022 95.1151 152.925 92.0454 151.83 88.9757C151.332 87.5806 149.625 88.7832 150.12 90.1688Z" fill="#CC3195"/>
<path d="M150.12 90.1688C151.217 93.2385 152.314 96.3082 153.409 99.3798C153.907 100.775 155.614 99.5705 155.119 98.1867C154.022 95.1151 152.925 92.0454 151.83 88.9757C151.332 87.5806 149.625 88.7832 150.12 90.1688Z" fill="#CC3195"/>
</svg>
