<svg width="30" height="31" viewBox="0 0 30 31" fill="none" xmlns="http://www.w3.org/2000/svg">
<path d="M21.8978 20.3871C21.6069 22.2258 20.4433 23.7742 18.7949 24.7419" stroke="black" stroke-width="0.8" stroke-miterlimit="10" stroke-linecap="round" stroke-linejoin="round"/>
<path d="M21.8965 17.2905V16.613" stroke="black" stroke-width="0.8" stroke-miterlimit="10" stroke-linecap="round" stroke-linejoin="round"/>
<path d="M8.22461 11.4839C10.9396 5.77419 15.5939 2 15.5939 2C15.5939 2 24.9994 9.64516 24.9994 19.6129C24.9994 24.7419 20.83 29 15.5939 29C15.206 29 14.9151 29 14.5273 28.9032" stroke="black" stroke-width="0.8" stroke-miterlimit="10" stroke-linecap="round" stroke-linejoin="round"/>
<path d="M7.93359 16.2258C8.22449 23.1936 11.1334 26.7742 12.8788 28.5162" stroke="black" stroke-width="0.8" stroke-miterlimit="10" stroke-linecap="round" stroke-linejoin="round"/>
<path d="M10.455 25.9031C8.8066 26.3869 7.06124 25.7095 6.0916 24.3547C5.025 22.9031 4.83107 20.9676 5.12196 19.2257C5.50982 16.9998 6.47946 14.8708 7.83696 13.0321C8.51571 14.0966 9.48535 14.9676 10.358 15.8386C11.4246 16.9031 12.3943 18.0644 12.8791 19.4192C13.9457 21.9353 13.3639 25.1289 10.455 25.9031Z" stroke="black" stroke-width="0.8" stroke-miterlimit="10" stroke-linecap="round" stroke-linejoin="round"/>
</svg>
