<svg width="30" height="31" viewBox="0 0 30 31" fill="none" xmlns="http://www.w3.org/2000/svg">
<path d="M22 19.6088C22 24.6583 18 28.7177 13 28.7177C8 28.7177 4 24.6583 4 19.6088C4 18.0247 4.4 16.5396 5.1 15.3514L13.1 0.5L21 15.3514C21.6 16.5396 22 18.0247 22 19.6088Z" stroke="black" stroke-width="0.8" stroke-miterlimit="10" stroke-linecap="round" stroke-linejoin="round"/>
<path d="M13 24.6584C10.2 24.6584 8 22.3812 8 19.6089" stroke="black" stroke-width="0.8" stroke-miterlimit="10" stroke-linecap="round" stroke-linejoin="round"/>
<path d="M21 27.8268C23.4853 27.8268 25.5 25.832 25.5 23.3713C25.5 20.9107 23.4853 18.9159 21 18.9159C18.5147 18.9159 16.5 20.9107 16.5 23.3713C16.5 25.832 18.5147 27.8268 21 27.8268Z" fill="white" stroke="black" stroke-width="0.8" stroke-miterlimit="10"/>
<path d="M19.855 21.59V25.724H22.363V25.202H20.413V23.954H22.063V23.432H20.413V22.112H22.303V21.59H19.855Z" fill="black"/>
</svg>
